<?xml version="1.0" standalone="no"?>
<!DOCTYPE svg PUBLIC "-//W3C//DTD SVG 20010904//EN"
 "http://www.w3.org/TR/2001/REC-SVG-20010904/DTD/svg10.dtd">
<svg version="1.0" xmlns="http://www.w3.org/2000/svg"
 width="100.000000pt" height="100.000000pt" viewBox="0 0 100.000000 100.000000"
 preserveAspectRatio="xMidYMid meet">
<metadata>
Created by potrace 1.16, written by Peter Selinger 2001-2019
</metadata>
<g transform="translate(0.000000,100.000000) scale(0.039063,-0.039063)"
fill="#000000" stroke="none">
<path d="M26 2409 c-33 -26 -37 -88 -6 -119 18 -18 33 -20 185 -20 146 0 165
-2 174 -17 17 -33 342 -1253 336 -1263 -3 -6 -15 -10 -26 -10 -34 0 -95 -37
-132 -80 -93 -109 -66 -278 57 -355 43 -26 60 -30 138 -34 78 -3 88 -5 82 -20
-4 -9 -9 -41 -12 -73 -13 -157 108 -284 268 -282 75 1 121 18 175 65 54 48 85
119 85 196 0 34 -4 73 -10 87 l-10 26 230 0 230 0 -10 -26 c-13 -33 -13 -119
0 -166 16 -57 70 -120 130 -153 78 -42 172 -42 250 0 60 33 114 96 130 153 13
48 13 133 0 168 -9 22 -7 29 9 40 42 30 33 111 -15 133 -18 8 -244 11 -794 11
-422 0 -776 3 -785 6 -17 7 -45 54 -45 78 0 8 11 28 24 43 l24 28 779 5 780 5
36 28 c21 16 44 39 52 51 21 31 205 833 205 891 0 57 -23 99 -70 128 l-35 22
-912 3 -913 3 -14 52 c-9 28 -31 110 -50 181 -59 220 -83 235 -357 236 -143 0
-159 -2 -183 -21z m974 -618 c0 -4 9 -75 20 -156 11 -81 20 -152 20 -156 0 -5
-63 -9 -140 -9 l-139 0 -12 43 c-43 163 -70 264 -74 275 -3 9 33 12 160 12 91
0 165 -4 165 -9z m480 -156 l0 -165 -138 0 -139 0 -17 138 c-9 75 -19 149 -22
165 l-6 27 161 0 161 0 0 -165z m477 133 c-3 -18 -14 -93 -23 -165 l-17 -133
-138 0 -139 0 0 165 0 165 161 0 161 0 -5 -32z m443 23 c0 -6 -16 -78 -35
-161 -19 -83 -35 -153 -35 -156 0 -2 -57 -4 -126 -4 l-126 0 5 33 c3 17 13 92
23 165 l17 132 138 0 c80 0 139 -4 139 -9z m-1315 -643 l21 -158 -102 0 c-69
0 -105 4 -111 13 -10 12 -83 275 -83 296 0 8 37 11 127 9 l127 -3 21 -157z
m395 2 l0 -160 -105 0 c-100 0 -105 1 -109 23 -8 33 -36 256 -36 278 0 18 9
19 125 19 l125 0 0 -160z m395 3 l-21 -158 -107 -3 -107 -3 0 161 0 160 128 0
128 0 -21 -157z m415 153 c0 -13 -69 -297 -75 -305 -3 -7 -45 -11 -101 -11
-110 0 -101 -17 -79 157 24 184 7 163 140 163 63 0 115 -2 115 -4z m-1160
-811 c87 -45 78 -164 -15 -195 -61 -20 -135 34 -135 100 0 51 54 109 103 110
10 0 31 -7 47 -15z m950 0 c86 -44 77 -165 -14 -195 -85 -28 -168 72 -125 151
12 24 67 59 92 59 10 0 31 -7 47 -15z"/>
</g>
</svg>
